<svg width="16" height="16" viewBox="0 0 16 16" fill="none" xmlns="http://www.w3.org/2000/svg">
<g clip-path="url(#clip0_591_9730)">
<path d="M1.33301 7.99999C1.33301 11.6819 4.31778 14.6667 7.99967 14.6667C9.10424 14.6667 9.99967 13.7712 9.99967 12.6667V12.3333C9.99967 12.0237 9.99967 11.8689 10.0168 11.7389C10.1349 10.8415 10.8412 10.1353 11.7386 10.0171C11.8686 9.99999 12.0234 9.99999 12.333 9.99999H12.6663C13.7709 9.99999 14.6663 9.10456 14.6663 7.99999C14.6663 4.3181 11.6816 1.33333 7.99967 1.33333C4.31778 1.33333 1.33301 4.3181 1.33301 7.99999Z" stroke="#B1B9B9" stroke-width="1.5" stroke-linecap="round" stroke-linejoin="round"/>
<path d="M4.66634 8.66666C5.03453 8.66666 5.33301 8.36818 5.33301 7.99999C5.33301 7.6318 5.03453 7.33333 4.66634 7.33333C4.29815 7.33333 3.99967 7.6318 3.99967 7.99999C3.99967 8.36818 4.29815 8.66666 4.66634 8.66666Z" stroke="#B1B9B9" stroke-width="1.5" stroke-linecap="round" stroke-linejoin="round"/>
<path d="M10.6663 5.99999C11.0345 5.99999 11.333 5.70152 11.333 5.33333C11.333 4.96514 11.0345 4.66666 10.6663 4.66666C10.2982 4.66666 9.99967 4.96514 9.99967 5.33333C9.99967 5.70152 10.2982 5.99999 10.6663 5.99999Z" stroke="#B1B9B9" stroke-width="1.5" stroke-linecap="round" stroke-linejoin="round"/>
<path d="M6.66634 5.33333C7.03453 5.33333 7.33301 5.03485 7.33301 4.66666C7.33301 4.29847 7.03453 3.99999 6.66634 3.99999C6.29815 3.99999 5.99967 4.29847 5.99967 4.66666C5.99967 5.03485 6.29815 5.33333 6.66634 5.33333Z" stroke="#B1B9B9" stroke-width="1.5" stroke-linecap="round" stroke-linejoin="round"/>
</g>
<defs>
<clipPath id="clip0_591_9730">
<rect width="16" height="16" fill="white"/>
</clipPath>
</defs>
</svg>
